<svg width="35" height="56" viewBox="0 0 35 56" fill="none" xmlns="http://www.w3.org/2000/svg">
<path fill-rule="evenodd" clip-rule="evenodd" d="M14.3647 51.6628C11.7549 51.6628 10.8548 50.4406 10.8548 47.9066V35.6768H15.4018V34.9163H10.8548V29.2953L3.29596 30.2455V48.0408C3.29596 53.5168 7.34488 54.9663 10.8992 54.9663C14.2277 54.9663 16.8392 52.8851 17.3782 50.4853L17.1078 50.3046C16.5688 50.9381 15.6686 51.6628 14.3629 51.6628H14.3647Z" fill="#21145F"/>
<path fill-rule="evenodd" clip-rule="evenodd" d="M23.4402 33.6389C23.4402 32.2031 24.481 31.2848 26.0555 31.2848C28.5517 31.2848 31.9072 32.7404 32.6811 37.3749H33.0689V32.124C31.473 31.4214 29.1797 30.6828 26.0573 30.6828C21.1539 30.6828 18.0333 33.2507 18.0333 37.5205C18.0333 45.4795 29.0409 46.6206 29.0409 51.5804C29.0409 53.0252 27.6728 54.3262 25.8758 54.3262C23.1146 54.3262 20.0206 51.451 19.1595 46.6637H18.7716V53.408C19.5385 53.9668 22.1449 55.1996 26.0093 55.1996C30.9998 55.1996 34.2218 52.1698 34.2218 48.0564C34.2218 40.6527 23.4402 38.2501 23.4402 33.6407V33.6389Z" fill="#21145F"/>
<path fill-rule="evenodd" clip-rule="evenodd" d="M10.841 0.799988L0.777779 2.70399V3.06794C2.62806 3.74743 3.1687 4.3839 3.1687 5.97057V22.4666C3.1687 24.8224 3.1223 26.7282 1.40941 27.2284L1.38086 27.5923C9.62952 27.5923 12.8662 27.5403 16.7969 25.2132C18.6972 26.9559 21.229 27.9993 24.0107 28.0011C29.6526 28.0011 32.9463 24.7812 33.5333 21.4249L33.0444 21.3174C31.8026 27.076 24.2659 28.1266 22.2621 21.5307C23.2238 20.8207 24.2034 20.0803 25.1937 19.3309C26.1161 18.6335 27.0475 17.9289 27.9807 17.2368L33.6886 13.28C32.6412 7.52676 28.7836 6.23591 24.6887 6.23591C19.1379 6.23591 13.3158 9.45587 13.3158 17.1633C13.3158 20.1897 14.4845 22.87 16.3812 24.8098C12.3077 27.1334 10.8428 24.5678 10.8428 20.81V0.799988H10.841ZM22.1015 20.9427C21.5788 18.7643 21.6733 16.249 21.8375 14.0707C22.1212 10.32 23.1311 6.64109 24.8672 6.64109C26.2357 6.64109 30.1397 14.881 24.8565 18.8755C23.9268 19.5783 23.008 20.2739 22.1033 20.9427H22.1015Z" fill="#21145F"/>
<path fill-rule="evenodd" clip-rule="evenodd" d="M16.2545 28.1781C17.6307 28.1781 18.7459 29.3 18.7459 30.6843C18.7459 32.0687 17.6307 33.1888 16.2545 33.1888C14.8783 33.1888 13.7648 32.067 13.7648 30.6843C13.7648 29.3017 14.88 28.1781 16.2545 28.1781Z" fill="#21145F"/>
</svg>
